<svg xmlns="http://www.w3.org/2000/svg" xmlns:xlink="http://www.w3.org/1999/xlink" width="30" height="30" viewBox="0 0 30 30">
  <defs>
    <clipPath id="clip-path">
      <rect width="30" height="30" fill="none"/>
    </clipPath>
  </defs>
  <g id="clone-icon" clip-path="url(#clip-path)">
    <g id="Group_263" data-name="Group 263" transform="translate(-446 -16)">
      <path id="Path_377" data-name="Path 377" d="M-312,47h-10a3,3,0,0,1-3-3V29.8a3,3,0,0,1,3-3h10a3,3,0,0,1,3,3V44A3,3,0,0,1-312,47Zm-10-18.2a1,1,0,0,0-1,1V44a1,1,0,0,0,1,1h10a1,1,0,0,0,1-1V29.8a1,1,0,0,0-1-1Z" transform="translate(771 -1)" fill="#5ea9ff"/>
      <path id="Path_378" data-name="Path 378" d="M-297.4,38.6h-4.9a1,1,0,0,1-1-1,1,1,0,0,1,1-1h4.9a.4.4,0,0,0,.4-.4V19.4a.4.4,0,0,0-.4-.4H-310a.4.4,0,0,0-.4.4,1,1,0,0,1-1,1,1,1,0,0,1-1-1A2.4,2.4,0,0,1-310,17h12.6a2.4,2.4,0,0,1,2.4,2.4V36.2A2.4,2.4,0,0,1-297.4,38.6Z" transform="translate(771 -1)" fill="#5ea9ff"/>
    </g>
  </g>
</svg>
