<svg xmlns="http://www.w3.org/2000/svg" xmlns:xlink="http://www.w3.org/1999/xlink" width="154" height="175" viewBox="0 0 154 175">
  <defs>
    <clipPath id="clip-path">
      <rect width="154" height="154" fill="none"/>
    </clipPath>
    <filter id="Rectangle_71" x="0" y="0" width="154" height="154" filterUnits="userSpaceOnUse">
      <feOffset dy="3" input="SourceAlpha"/>
      <feGaussianBlur stdDeviation="6" result="blur"/>
      <feFlood flood-opacity="0.078"/>
      <feComposite operator="in" in2="blur"/>
      <feComposite in="SourceGraphic"/>
    </filter>
  </defs>
  <g id="Column_Type" data-name="Column Type" transform="translate(-34 -269)">
    <text id="Column_Type-2" data-name="Column Type" transform="translate(111 436)" fill="#444" font-size="24" font-family="Nunito-Regular, Nunito"><tspan x="-70.092" y="0">Column Type</tspan></text>
    <g id="job-bg" transform="translate(34 269)" clip-path="url(#clip-path)">
      <g transform="matrix(1, 0, 0, 1, 0, 0)" filter="url(#Rectangle_71)">
        <g id="Rectangle_71-2" data-name="Rectangle 71" transform="translate(18 15)" fill="#fff" stroke="#818181" stroke-width="2">
          <rect width="118" height="118" rx="10" stroke="none"/>
          <rect x="1" y="1" width="116" height="116" rx="9" fill="none"/>
        </g>
      </g>
    </g>
    <g id="Group_219" data-name="Group 219" transform="translate(181 527.168)">
      <g id="_64_x_64" data-name="64 x 64" transform="translate(-80.665 -216.168)">
        <g id="Group_217" data-name="Group 217">
          <path id="Path_349" data-name="Path 349" d="M-70.569-174.026a12.508,12.508,0,0,1-6.591-1.918,1.55,1.55,0,0,1-.694-1.14,1.547,1.547,0,0,1,.453-1.253l4.907-4.849-1.487-5.1-5.19-1.492-4.907,4.846a1.627,1.627,0,0,1-1.268.448,1.573,1.573,0,0,1-1.154-.686c-1.788-2.647-3.813-8.992,1.311-14.054,4.616-4.558,10.16-2.338,13.281.07l16.765-16.558a1.586,1.586,0,0,1,2.225,0,1.542,1.542,0,0,1,0,2.2l-17.807,17.589a1.589,1.589,0,0,1-2.225,0c-.225-.222-5.645-5.419-10.014-1.1a7.5,7.5,0,0,0-1.789,8.361l4.015-3.963a1.571,1.571,0,0,1,1.552-.393l6.918,1.987A1.567,1.567,0,0,1-71.2-189.97l1.983,6.806a1.537,1.537,0,0,1-.4,1.528l-4,3.955a7.767,7.767,0,0,0,8.456-1.755c4.372-4.32-.891-9.671-1.116-9.9a1.543,1.543,0,0,1,0-2.2l17.807-17.593a1.589,1.589,0,0,1,2.225,0,1.54,1.54,0,0,1,0,2.2L-63-190.358c2.438,3.081,4.688,8.556.071,13.121A10.6,10.6,0,0,1-70.569-174.026Z" transform="translate(88.443 216.168)" fill="#444545"/>
        </g>
      </g>
      <g id="Layer_1" data-name="Layer 1" transform="translate(-102 -173.933)">
        <g id="Group_218" data-name="Group 218">
          <path id="Path_350" data-name="Path 350" d="M-84.689-167.236h-12.59A4.7,4.7,0,0,1-102-171.9v-12.437A4.7,4.7,0,0,1-97.279-189h12.59a4.7,4.7,0,0,1,4.721,4.664V-171.9A4.7,4.7,0,0,1-84.689-167.236Zm-12.59-18.655a1.565,1.565,0,0,0-1.574,1.555V-171.9a1.565,1.565,0,0,0,1.574,1.555h12.59a1.565,1.565,0,0,0,1.574-1.555v-12.437a1.565,1.565,0,0,0-1.574-1.555Z" transform="translate(102 189)" fill="#444"/>
        </g>
      </g>
    </g>
  </g>
</svg>
