<svg xmlns="http://www.w3.org/2000/svg" xmlns:xlink="http://www.w3.org/1999/xlink" width="154" height="175" viewBox="0 0 154 175">
  <defs>
    <clipPath id="clip-path">
      <rect width="154" height="154" fill="none"/>
    </clipPath>
    <filter id="Rectangle_71" x="0" y="0" width="154" height="154" filterUnits="userSpaceOnUse">
      <feOffset dy="3" input="SourceAlpha"/>
      <feGaussianBlur stdDeviation="6" result="blur"/>
      <feFlood flood-opacity="0.078"/>
      <feComposite operator="in" in2="blur"/>
      <feComposite in="SourceGraphic"/>
    </filter>
  </defs>
  <g id="Command" transform="translate(-244 -269)">
    <text id="Command-2" data-name="Command" transform="translate(321 436)" fill="#444" font-size="24" font-family="Nunito-Regular, Nunito"><tspan x="-55.272" y="0">Command</tspan></text>
    <g id="job-bg" transform="translate(244 269)" clip-path="url(#clip-path)">
      <g transform="matrix(1, 0, 0, 1, 0, 0)" filter="url(#Rectangle_71)">
        <g id="Rectangle_71-2" data-name="Rectangle 71" transform="translate(18 15)" fill="#fff" stroke="#818181" stroke-width="2">
          <rect width="118" height="118" rx="10" stroke="none"/>
          <rect x="1" y="1" width="116" height="116" rx="9" fill="none"/>
        </g>
      </g>
    </g>
    <g id="Group_202" data-name="Group 202" transform="translate(619.5 532)">
      <g id="Group_200" data-name="Group 200" transform="translate(-330.501 -207)">
        <g id="Group_199" data-name="Group 199">
          <path id="Path_336" data-name="Path 336" d="M-328.974-172.5a1.5,1.5,0,0,1-1.291-.763,1.71,1.71,0,0,1,.475-2.258l18.563-12.588a1.638,1.638,0,0,0,.71-1.368,1.639,1.639,0,0,0-.686-1.383L-329.812-204a1.712,1.712,0,0,1-.436-2.268,1.461,1.461,0,0,1,2.109-.468l18.612,13.14a5,5,0,0,1,2.059,4.148,4.98,4.98,0,0,1-2.13,4.106l-18.563,12.59A1.448,1.448,0,0,1-328.974-172.5Z" transform="translate(330.501 207)" fill="#444"/>
        </g>
      </g>
      <g id="Group_201" data-name="Group 201" transform="translate(-298.232 -174.273)">
        <path id="Path_337" data-name="Path 337" d="M-279.116-183.727H-307.8a1.583,1.583,0,0,1-1.524-1.636A1.583,1.583,0,0,1-307.8-187h28.684a1.583,1.583,0,0,1,1.524,1.636A1.583,1.583,0,0,1-279.116-183.727Z" transform="translate(309.324 187)" fill="#444"/>
      </g>
    </g>
  </g>
</svg>
