<svg xmlns="http://www.w3.org/2000/svg" xmlns:xlink="http://www.w3.org/1999/xlink" width="156" height="175" viewBox="0 0 156 175">
  <defs>
    <clipPath id="clip-path">
      <rect width="154" height="154" fill="none"/>
    </clipPath>
    <filter id="Rectangle_71" x="1" y="0" width="154" height="154" filterUnits="userSpaceOnUse">
      <feOffset dy="3" input="SourceAlpha"/>
      <feGaussianBlur stdDeviation="6" result="blur"/>
      <feFlood flood-opacity="0.078"/>
      <feComposite operator="in" in2="blur"/>
      <feComposite in="SourceGraphic"/>
    </filter>
  </defs>
  <g id="Data_Compare" data-name="Data Compare" transform="translate(-33 -269)">
    <text id="Data_Compare-2" data-name="Data Compare" transform="translate(111 436)" fill="#444" font-size="24" font-family="Nunito-Regular, Nunito"><tspan x="-77.436" y="0">Data Compare</tspan></text>
    <g id="job-bg" transform="translate(34 269)" clip-path="url(#clip-path)">
      <g transform="matrix(1, 0, 0, 1, -1, 0)" filter="url(#Rectangle_71)">
        <g id="Rectangle_71-2" data-name="Rectangle 71" transform="translate(19 15)" fill="#fff" stroke="#818181" stroke-width="2">
          <rect width="118" height="118" rx="10" stroke="none"/>
          <rect x="1" y="1" width="116" height="116" rx="9" fill="none"/>
        </g>
      </g>
    </g>
    <g id="Group_205" data-name="Group 205" transform="translate(182 414)">
      <g id="Group_203" data-name="Group 203" transform="translate(-103 -61.857)">
        <path id="Path_338" data-name="Path 338" d="M-58.809-53.143a1.52,1.52,0,0,1-1.035-.405,1.524,1.524,0,0,1-.084-2.153L-44-72.952h-57.472A1.522,1.522,0,0,1-103-74.476,1.522,1.522,0,0,1-101.476-76h60.953a1.523,1.523,0,0,1,1.4.913,1.525,1.525,0,0,1-.277,1.646l-18.286,19.81A1.514,1.514,0,0,1-58.809-53.143Z" transform="translate(103 76)" fill="#444"/>
      </g>
      <g id="Group_204" data-name="Group 204" transform="translate(-103 -103)">
        <path id="Path_339" data-name="Path 339" d="M-40.523-81.667h-.02l-60.953-.762a1.525,1.525,0,0,1-1.4-.965,1.527,1.527,0,0,1,.364-1.659l18.286-17.524a1.525,1.525,0,0,1,2.155.046,1.524,1.524,0,0,1-.046,2.155l-15.6,14.946,57.229.716A1.525,1.525,0,0,1-39-83.171,1.523,1.523,0,0,1-40.523-81.667Z" transform="translate(103 103)" fill="#444"/>
      </g>
    </g>
  </g>
</svg>
