<svg xmlns="http://www.w3.org/2000/svg" xmlns:xlink="http://www.w3.org/1999/xlink" width="36" height="36" viewBox="0 0 36 36">
  <defs>
    <clipPath id="clip-path">
      <rect width="16" height="20" fill="none"/>
    </clipPath>
  </defs>
  <g id="delete_job" data-name="delete job" transform="translate(-143 -275)">
    <circle id="Ellipse_61" data-name="Ellipse 61" cx="18" cy="18" r="18" transform="translate(143 275)" fill="#ff7e56"/>
    <g id="delete-icon-smaller" transform="translate(153 283)" clip-path="url(#clip-path)">
      <path id="Path_317" data-name="Path 317" d="M29.1,14.232a2.28,2.28,0,0,0-1.827-.976H26.193l-.348-1.3a2.464,2.464,0,0,0-2.3-1.96H19.655a2.464,2.464,0,0,0-2.3,1.96l-.348,1.3h-.931a2.28,2.28,0,0,0-1.827.976,3.108,3.108,0,0,0-.549,2.245L15.933,27.64A2.534,2.534,0,0,0,18.31,30h6.728a2.534,2.534,0,0,0,2.376-2.36l2.231-11.163A3.108,3.108,0,0,0,29.1,14.232ZM18.889,11.745a.821.821,0,0,1,.765-.653h3.894a.821.821,0,0,1,.765.653l.2,1.512H18.69ZM28.06,16.19,25.83,27.353a.845.845,0,0,1-.792.787H18.31a.845.845,0,0,1-.792-.787L15.287,16.19a1.022,1.022,0,0,1,.183-.749.75.75,0,0,1,.609-.325h11.19a.75.75,0,0,1,.609.325A1.022,1.022,0,0,1,28.06,16.19Z" transform="translate(-13.674 -10)" fill="#fff"/>
    </g>
  </g>
</svg>
