<svg xmlns="http://www.w3.org/2000/svg" xmlns:xlink="http://www.w3.org/1999/xlink" width="48" height="48" viewBox="0 0 48 48">
  <defs>
    <clipPath id="clip-path">
      <rect width="48" height="48" fill="none"/>
    </clipPath>
  </defs>
  <g id="delete_connection" data-name="delete connection" transform="translate(0 0)" clip-path="url(#clip-path)">
    <g id="delete_connection-2" data-name="delete connection" transform="translate(-40.189 -18.934)" fill="#ff7e56">
      <path d="M 75.88051605224609 61.9338264465332 C 73.89929962158203 61.9338264465332 72.04521179199219 61.16497421264648 70.65981292724609 59.76891326904297 L 64.18904113769531 53.24764633178711 L 57.717529296875 59.76892471313477 C 56.33195114135742 61.16503524780273 54.47792053222656 61.9338264465332 52.49681091308594 61.9338264465332 C 50.64723968505859 61.9338264465332 48.88214111328125 61.24972534179688 47.52666091918945 60.00753402709961 C 46.08868789672852 58.69098663330078 45.23667144775391 56.82284545898438 45.19081115722656 54.88371658325195 C 45.14498901367188 52.94618606567383 45.90666961669922 51.04189682006836 47.2805290222168 49.65912628173828 L 53.9542350769043 42.93428039550781 L 47.27827835083008 36.20644378662109 C 45.90663909912109 34.82588577270508 45.14498138427734 32.92179489135742 45.19081115722656 30.98461532592773 C 45.23667907714844 29.04583549499512 46.08871841430664 27.17791557312012 47.52845001220703 25.85979461669922 C 48.88222885131836 24.61881446838379 50.64815139770508 23.93422508239746 52.49861907958984 23.93422508239746 C 54.47945022583008 23.93422508239746 56.33259201049805 24.70332908630371 57.71733856201172 26.09982681274414 L 57.71733856201172 26.09982490539551 L 64.18903350830078 32.62057495117188 L 70.65979766845703 26.10002517700195 C 72.04488372802734 24.70300674438477 73.89797973632812 23.93382453918457 75.87867736816406 23.93382453918457 C 77.72792053222656 23.93382453918457 79.49343109130859 24.61779594421387 80.84999847412109 25.85975456237793 C 82.29003143310547 27.1798152923584 83.14090728759766 29.04690551757812 83.18679809570312 30.98443412780762 C 83.23265075683594 32.92040634155273 82.47218322753906 34.82369613647461 81.10038757324219 36.20628356933594 L 74.42423248291016 42.93428802490234 L 81.10002136230469 49.66119384765625 C 82.47215270996094 51.04408645629883 83.23262786865234 52.94756317138672 83.18679809570312 54.88389587402344 C 83.14092254638672 56.82178497314453 82.29006958007812 58.6890869140625 80.85238647460938 60.00701522827148 C 79.49626159667969 61.2497444152832 77.73078155517578 61.9338264465332 75.88051605224609 61.9338264465332 Z" stroke="none"/>
      <path d="M 75.88051605224609 56.9338264465332 C 76.45197296142578 56.9338264465332 77.02688598632812 56.73075485229492 77.47368621826172 56.32131195068359 C 78.39608764648438 55.47574234008789 78.43073272705078 54.0698127746582 77.55103302001953 53.18321228027344 L 67.38017272949219 42.93448257446289 L 77.55103302001953 32.68462753295898 C 78.43073272705078 31.79801177978516 78.39608764648438 30.39319801330566 77.47368621826172 29.54763984680176 C 77.02593231201172 29.1377124786377 76.45172119140625 28.93381690979004 75.87868499755859 28.93381690979004 C 75.26971435546875 28.93381690979004 74.66207885742188 29.16406059265137 74.2088623046875 29.62198448181152 L 64.18924713134766 39.71869659423828 L 54.16847229003906 29.62198448181152 C 53.71574401855469 29.16452598571777 53.10773468017578 28.9342212677002 52.49862289428711 28.9342212677002 C 51.92572784423828 28.9342212677002 51.35187911987305 29.13781547546387 50.90480422973633 29.54763984680176 C 49.98124694824219 30.39319801330566 49.94657516479492 31.79801177978516 50.82747268676758 32.68462753295898 L 60.99828720092773 42.93448257446289 L 50.82747268676758 53.18321228027344 C 49.94657516479492 54.0698127746582 49.98124694824219 55.47574234008789 50.90480422973633 56.32131195068359 C 51.3515739440918 56.73075485229492 51.92420196533203 56.9338264465332 52.49681854248047 56.9338264465332 C 53.10636138916016 56.9338264465332 53.71475982666016 56.70412826538086 54.16847229003906 56.24695587158203 L 64.18924713134766 46.14912796020508 L 74.2088623046875 56.24695587158203 C 74.66254425048828 56.70412826538086 75.27094268798828 56.9338264465332 75.88051605224609 56.9338264465332 M 75.88051605224609 66.93382263183594 C 72.55653381347656 66.93382263183594 69.44204711914062 65.64008331298828 67.11078643798828 63.29091262817383 L 64.18883514404297 60.34614944458008 L 61.26657485961914 63.2908821105957 C 58.93505859375 65.64015197753906 55.82065963745117 66.93382263183594 52.49681854248047 66.93382263183594 C 49.39323043823242 66.93382263183594 46.42838668823242 65.78311157226562 44.14842987060547 63.69365692138672 C 41.71335983276367 61.46419906616211 40.27007293701172 58.29496765136719 40.19220352172852 55.00185394287109 C 40.11438751220703 51.71035385131836 41.40518951416016 48.47849655151367 43.73364639282227 46.13498306274414 L 46.91019439697266 42.93409729003906 L 43.72908782958984 39.72826766967773 C 41.40514373779297 37.38925552368164 40.11437225341797 34.15759658813477 40.19221496582031 30.866455078125 C 40.27008819580078 27.57368278503418 41.71340179443359 24.4046688079834 44.15206146240234 22.17196846008301 C 46.42804718017578 20.0855827331543 49.39388656616211 18.93422698974609 52.49861526489258 18.93422698974609 C 55.77901840209961 18.93422698974609 58.97831726074219 20.26588439941406 61.27618789672852 22.58773994445801 L 64.18883514404297 25.5224609375 L 67.11074829101562 22.57806968688965 C 69.39942932128906 20.26556968688965 72.59866333007812 18.93381309509277 75.87868499755859 18.93381309509277 C 78.98095703125 18.93381309509277 81.94553375244141 20.08378410339355 84.226318359375 22.1718692779541 C 86.66617584228516 24.40847015380859 88.10747528076172 27.5758113861084 88.18538665771484 30.86609840393066 C 88.26327514648438 34.15481185913086 86.97457122802734 37.38484191894531 84.64973449707031 39.72795486450195 L 81.46830749511719 42.93408966064453 L 84.64901733398438 46.13915634155273 C 86.97453308105469 48.48292541503906 88.26325988769531 51.71314239501953 88.18540191650391 55.00221252441406 C 88.10750579833984 58.29285430908203 86.66621398925781 61.46041107177734 84.23110198974609 63.69269943237305 C 81.94987487792969 65.78318023681641 78.98470306396484 66.93382263183594 75.88051605224609 66.93382263183594 Z" stroke="none" fill="#ececec"/>
    </g>
  </g>
</svg>
