<svg xmlns="http://www.w3.org/2000/svg" xmlns:xlink="http://www.w3.org/1999/xlink" width="25.998" height="32" viewBox="0 0 25.998 32">
  <defs>
    <clipPath id="clip-path">
      <rect width="25.999" height="32" fill="none"/>
    </clipPath>
  </defs>
  <g id="delete-icon" clip-path="url(#clip-path)">
    <g id="Group_264" data-name="Group 264" transform="translate(-469 -135)">
      <g id="discard" transform="translate(868.992 -125.575)">
        <path id="Union_1" data-name="Union 1" d="M6.553,28.85A3.741,3.741,0,0,1,2.82,25.127V6.515H1.888A1.925,1.925,0,0,1,.208,3.723a2.087,2.087,0,0,1,1.677-.93H8.42S9.82,0,12.62,0s4.2,2.792,4.2,2.792h6.439a1.892,1.892,0,0,1,1.68,2.792,1.8,1.8,0,0,1-1.587.93h-.934V25.127a3.739,3.739,0,0,1-3.733,3.723ZM16.818,13.494V22.8a1.4,1.4,0,0,0,2.8,0V13.494a1.4,1.4,0,0,0-2.8,0Zm-5.6,0V22.8a1.4,1.4,0,0,0,2.8,0V13.494a1.4,1.4,0,0,0-2.8,0Zm-5.6,0V22.8a1.4,1.4,0,0,0,2.8,0V13.494a1.4,1.4,0,0,0-2.8,0Z" transform="translate(-399.992 262.575)" fill="#ff7e56"/>
      </g>
    </g>
  </g>
</svg>
