<svg xmlns="http://www.w3.org/2000/svg" xmlns:xlink="http://www.w3.org/1999/xlink" width="36" height="36" viewBox="0 0 36 36">
  <defs>
    <clipPath id="clip-path">
      <rect width="18" height="18" fill="none"/>
    </clipPath>
  </defs>
  <g id="duplicate_job" data-name="duplicate job" transform="translate(-143 -275)">
    <circle id="Ellipse_61" data-name="Ellipse 61" cx="18" cy="18" r="18" transform="translate(143 275)" fill="#5ea9ff"/>
    <g id="duplicate" transform="translate(152 284)" clip-path="url(#clip-path)">
      <path id="Path_315" data-name="Path 315" d="M-209.818,35.273h-6.545A1.638,1.638,0,0,1-218,33.636v-9A1.638,1.638,0,0,1-216.364,23h6.545a1.638,1.638,0,0,1,1.636,1.636v9A1.638,1.638,0,0,1-209.818,35.273Zm-6.545-10.636h0v9h6.545v-9Z" transform="translate(218 -17.273)" fill="#fff"/>
      <path id="Path_316" data-name="Path 316" d="M-191,24.091h-2.864a.818.818,0,0,1-.818-.818.818.818,0,0,1,.818-.818H-191V12.636h-7.364a.818.818,0,0,1-.818.818.818.818,0,0,1-.818-.818A1.638,1.638,0,0,1-198.364,11H-191a1.638,1.638,0,0,1,1.636,1.636v9.818A1.638,1.638,0,0,1-191,24.091Z" transform="translate(207.364 -11)" fill="#fff"/>
    </g>
  </g>
</svg>
