<svg xmlns="http://www.w3.org/2000/svg" xmlns:xlink="http://www.w3.org/1999/xlink" width="30.012" height="30" viewBox="0 0 30.012 30">
  <defs>
    <clipPath id="clip-path">
      <rect width="30.012" height="30" fill="none"/>
    </clipPath>
  </defs>
  <g id="edit-icon" transform="translate(0 0)" clip-path="url(#clip-path)">
    <g id="edit-icon-2" data-name="edit-icon" transform="translate(818.92 151.694)">
      <g id="Group_286" data-name="Group 286" transform="translate(-800.099 -150.694)">
        <path id="Path_403" data-name="Path 403" d="M-786.18-140.479a.724.724,0,0,1-.51-.211l-6.545-6.525a.724.724,0,0,1-.211-.553.723.723,0,0,1,.272-.526l1.622-1.29a5.109,5.109,0,0,1,6.788.382,5.051,5.051,0,0,1,.5,6.615l-1.336,1.815a.725.725,0,0,1-.528.292Zm-5.459-7.187,5.374,5.358.839-1.137a3.614,3.614,0,0,0-.36-4.732,3.663,3.663,0,0,0-4.866-.274Z" transform="translate(793.448 150.694)" fill="#5ea9ff"/>
      </g>
      <g id="Group_287" data-name="Group 287" transform="translate(-817.919 -131.894)">
        <path id="Path_404" data-name="Path 404" d="M-816.468-115.677a1.452,1.452,0,0,1-1.026-.425,1.453,1.453,0,0,1-.4-1.279l1.221-6.9a.723.723,0,0,1,.495-.564.726.726,0,0,1,.729.177l6.545,6.525a.726.726,0,0,1,.179.73.724.724,0,0,1-.565.5l-6.923,1.218A1.457,1.457,0,0,1-816.468-115.677Zm.975-6.986-.979,5.534,5.555-.972Z" transform="translate(817.919 124.878)" fill="#5ea9ff"/>
      </g>
      <g id="Group_288" data-name="Group 288" transform="translate(-816.66 -148.476)">
        <path id="Path_405" data-name="Path 405" d="M-808.812-123.124a.825.825,0,0,1-.583-.24l-6.552-6.518a.826.826,0,0,1-.243-.585.822.822,0,0,1,.243-.585l16.381-16.354a.826.826,0,0,1,1.167,0l6.552,6.517a.826.826,0,0,1,.243.585.822.822,0,0,1-.243.585l-16.381,16.354A.826.826,0,0,1-808.812-123.124Zm-5.381-7.345,5.381,5.353L-793.6-140.3l-5.381-5.352Z" transform="translate(816.19 147.649)" fill="#5ea9ff"/>
      </g>
    </g>
  </g>
</svg>
