<svg xmlns="http://www.w3.org/2000/svg" xmlns:xlink="http://www.w3.org/1999/xlink" width="20" height="32" viewBox="0 0 20 32">
  <defs>
    <clipPath id="clip-path">
      <rect width="20" height="32" fill="none"/>
    </clipPath>
  </defs>
  <g id="help-icon" clip-path="url(#clip-path)">
    <g id="Group_266" data-name="Group 266" transform="translate(-1860 -121)">
      <circle id="Ellipse_65" data-name="Ellipse 65" cx="2" cy="2" r="2" transform="translate(1868 149)" fill="#ffc95e"/>
      <path id="Path_386" data-name="Path 386" d="M-359.45,953.031a1,1,0,0,1-1-1c0-5.414,3.242-7.628,5.847-9.407,2.234-1.525,3.6-2.566,3.6-4.655,0-4.364-2.991-6.969-8-6.969-5.5,0-8,4.342-8,8.375a1,1,0,0,1-1,1,1,1,0,0,1-1-1c0-5,3.129-10.375,10-10.375,7.381,0,10,4.831,10,8.969,0,3.251-2.275,4.8-4.475,6.306-2.558,1.748-4.975,3.4-4.975,7.756A1,1,0,0,1-359.45,953.031Z" transform="translate(2229 -808)" fill="#ffc95e"/>
    </g>
  </g>
</svg>
