<svg xmlns="http://www.w3.org/2000/svg" xmlns:xlink="http://www.w3.org/1999/xlink" width="24" height="24" viewBox="0 0 24 24">
  <defs>
    <clipPath id="clip-path">
      <rect width="10" height="10" fill="none"/>
    </clipPath>
  </defs>
  <g id="icon" transform="translate(-1234 -704)">
    <path id="Rectangle_12" data-name="Rectangle 12" d="M4,0h8A12,12,0,0,1,24,12v0A12,12,0,0,1,12,24H4a4,4,0,0,1-4-4V4A4,4,0,0,1,4,0Z" transform="translate(1234 704)" fill="#0ff5af"/>
    <g id="success-icon" transform="translate(1241 711)" clip-path="url(#clip-path)">
      <path id="Path_15" data-name="Path 15" d="M26.948,25.337a.723.723,0,0,1-.441-.149l-2.757-2.122a.7.7,0,0,1-.123-.988.724.724,0,0,1,1-.121l2.148,1.654,5.385-7.96a.722.722,0,0,1,.991-.2.7.7,0,0,1,.2.975l-5.813,8.593a.718.718,0,0,1-.482.3A.732.732,0,0,1,26.948,25.337Z" transform="translate(-23.476 -15.337)" fill="#fff"/>
    </g>
  </g>
</svg>
