<svg xmlns="http://www.w3.org/2000/svg" xmlns:xlink="http://www.w3.org/1999/xlink" width="154" height="175" viewBox="0 0 154 175">
  <defs>
    <clipPath id="clip-path">
      <rect width="154" height="154" fill="none"/>
    </clipPath>
    <filter id="Rectangle_71" x="0" y="0" width="154" height="154" filterUnits="userSpaceOnUse">
      <feOffset dy="3" input="SourceAlpha"/>
      <feGaussianBlur stdDeviation="6" result="blur"/>
      <feFlood flood-opacity="0.078"/>
      <feComposite operator="in" in2="blur"/>
      <feComposite in="SourceGraphic"/>
    </filter>
  </defs>
  <g id="input" transform="translate(-34 -269)">
    <text id="Input_Source" data-name="Input Source" transform="translate(111 436)" fill="#444" font-size="24" font-family="Nunito-Regular, Nunito"><tspan x="-67.764" y="0">Input Source</tspan></text>
    <g id="job-bg" transform="translate(34 269)" clip-path="url(#clip-path)">
      <g transform="matrix(1, 0, 0, 1, 0, 0)" filter="url(#Rectangle_71)">
        <g id="Rectangle_71-2" data-name="Rectangle 71" transform="translate(18 15)" fill="#fff" stroke="#818181" stroke-width="2">
          <rect width="118" height="118" rx="10" stroke="none"/>
          <rect x="1" y="1" width="116" height="116" rx="9" fill="none"/>
        </g>
      </g>
    </g>
    <g id="Group_198" data-name="Group 198" transform="translate(71 416)">
      <g id="Group_191" data-name="Group 191" transform="translate(53.333 -105)">
        <path id="Path_329" data-name="Path 329" d="M56.667-85.522H46A4.1,4.1,0,0,1,42-89.7v-11.13A4.1,4.1,0,0,1,46-105H56.667a4.1,4.1,0,0,1,4,4.174V-89.7A4.1,4.1,0,0,1,56.667-85.522ZM46-102.217a1.364,1.364,0,0,0-1.333,1.391V-89.7A1.364,1.364,0,0,0,46-88.3H56.667A1.364,1.364,0,0,0,58-89.7v-11.13a1.364,1.364,0,0,0-1.333-1.391Z" transform="translate(-42 105)" fill="#444"/>
      </g>
      <g id="Group_192" data-name="Group 192" transform="translate(53.333 -82.739)">
        <path id="Path_330" data-name="Path 330" d="M56.667-69.522H46A4.1,4.1,0,0,1,42-73.7v-11.13A4.1,4.1,0,0,1,46-89H56.667a4.1,4.1,0,0,1,4,4.174V-73.7A4.1,4.1,0,0,1,56.667-69.522ZM46-86.217a1.364,1.364,0,0,0-1.333,1.391V-73.7A1.364,1.364,0,0,0,46-72.3H56.667A1.364,1.364,0,0,0,58-73.7v-11.13a1.364,1.364,0,0,0-1.333-1.391Z" transform="translate(-42 89)" fill="#444"/>
      </g>
      <g id="Group_193" data-name="Group 193" transform="translate(8 -60.478)">
        <path id="Path_331" data-name="Path 331" d="M22.667-53.522H12A4.1,4.1,0,0,1,8-57.7v-11.13A4.1,4.1,0,0,1,12-73H22.667a4.1,4.1,0,0,1,4,4.174V-57.7A4.1,4.1,0,0,1,22.667-53.522ZM12-70.217a1.364,1.364,0,0,0-1.333,1.391V-57.7A1.364,1.364,0,0,0,12-56.3H22.667A1.364,1.364,0,0,0,24-57.7v-11.13a1.364,1.364,0,0,0-1.333-1.391Z" transform="translate(-8 73)" fill="#444"/>
      </g>
      <g id="Group_194" data-name="Group 194" transform="translate(30.667 -60.478)">
        <path id="Path_332" data-name="Path 332" d="M39.667-53.522H29A4.1,4.1,0,0,1,25-57.7v-11.13A4.1,4.1,0,0,1,29-73H39.667a4.1,4.1,0,0,1,4,4.174V-57.7A4.1,4.1,0,0,1,39.667-53.522ZM29-70.217a1.364,1.364,0,0,0-1.333,1.391V-57.7A1.364,1.364,0,0,0,29-56.3H39.667A1.364,1.364,0,0,0,41-57.7v-11.13a1.364,1.364,0,0,0-1.333-1.391Z" transform="translate(-25 73)" fill="#444"/>
      </g>
      <g id="Group_195" data-name="Group 195" transform="translate(53.333 -60.478)">
        <path id="Path_333" data-name="Path 333" d="M56.667-53.522H46A4.1,4.1,0,0,1,42-57.7v-11.13A4.1,4.1,0,0,1,46-73H56.667a4.1,4.1,0,0,1,4,4.174V-57.7A4.1,4.1,0,0,1,56.667-53.522ZM46-70.217a1.364,1.364,0,0,0-1.333,1.391V-57.7A1.364,1.364,0,0,0,46-56.3H56.667A1.364,1.364,0,0,0,58-57.7v-11.13a1.364,1.364,0,0,0-1.333-1.391Z" transform="translate(-42 73)" fill="#444"/>
      </g>
      <g id="Group_196" data-name="Group 196" transform="translate(18.666 -82.739)">
        <path id="Path_334" data-name="Path 334" d="M25.333-77.869a1.3,1.3,0,0,1-.943-.408l-8-8.348a1.433,1.433,0,0,1,0-1.967,1.293,1.293,0,0,1,1.885,0l7.057,7.364,7.057-7.364a1.293,1.293,0,0,1,1.885,0,1.433,1.433,0,0,1,0,1.967l-8,8.348A1.3,1.3,0,0,1,25.333-77.869Z" transform="translate(-16 89)" fill="#444"/>
      </g>
      <g id="Group_197" data-name="Group 197" transform="translate(26.667 -102.217)">
        <path id="Path_335" data-name="Path 335" d="M23.333-72.391A1.362,1.362,0,0,1,22-73.783v-27.826A1.362,1.362,0,0,1,23.333-103a1.362,1.362,0,0,1,1.333,1.391v27.826A1.362,1.362,0,0,1,23.333-72.391Z" transform="translate(-22 103)" fill="#444"/>
      </g>
    </g>
  </g>
</svg>
