<svg xmlns="http://www.w3.org/2000/svg" xmlns:xlink="http://www.w3.org/1999/xlink" width="154" height="175" viewBox="0 0 154 175">
  <defs>
    <clipPath id="clip-path">
      <rect width="154" height="154" fill="none"/>
    </clipPath>
    <filter id="Rectangle_71" x="0" y="0" width="154" height="154" filterUnits="userSpaceOnUse">
      <feOffset dy="3" input="SourceAlpha"/>
      <feGaussianBlur stdDeviation="6" result="blur"/>
      <feFlood flood-opacity="0.078"/>
      <feComposite operator="in" in2="blur"/>
      <feComposite in="SourceGraphic"/>
    </filter>
  </defs>
  <g id="Join_Data" data-name="Join Data" transform="translate(-34 -269)">
    <text id="Join_Data-2" data-name="Join Data" transform="translate(111 436)" fill="#444" font-size="24" font-family="Nunito-Regular, Nunito"><tspan x="-48.936" y="0">Join Data</tspan></text>
    <g id="job-bg" transform="translate(34 269)" clip-path="url(#clip-path)">
      <g transform="matrix(1, 0, 0, 1, 0, 0)" filter="url(#Rectangle_71)">
        <g id="Rectangle_71-2" data-name="Rectangle 71" transform="translate(18 15)" fill="#fff" stroke="#818181" stroke-width="2">
          <rect width="118" height="118" rx="10" stroke="none"/>
          <rect x="1" y="1" width="116" height="116" rx="9" fill="none"/>
        </g>
      </g>
    </g>
    <g id="Group_223" data-name="Group 223" transform="translate(-46 534)">
      <g id="Group_220" data-name="Group 220" transform="translate(144.302 -206)">
        <rect id="Rectangle_85" data-name="Rectangle 85" width="25.397" height="30" rx="2" fill="#444545"/>
      </g>
      <g id="Group_221" data-name="Group 221" transform="translate(173.254 -205.834)">
        <path id="Path_351" data-name="Path 351" d="M165.81-176.222h-7.619a1.512,1.512,0,0,1-1.524-1.5,1.511,1.511,0,0,1,1.524-1.5h7.619c2,0,3.555-.986,3.555-1.833v-20c0-.847-1.554-1.833-3.555-1.833h-7.619a1.511,1.511,0,0,1-1.524-1.5,1.512,1.512,0,0,1,1.524-1.5h7.619c3.7,0,6.6,2.122,6.6,4.833v20C172.413-178.345,169.513-176.222,165.81-176.222Z" transform="translate(-156.667 205.889)" fill="#444"/>
      </g>
      <g id="Group_222" data-name="Group 222" transform="translate(125 -205.834)">
        <path id="Path_352" data-name="Path 352" d="M139.222-176.222H131.6c-3.7,0-6.6-2.122-6.6-4.833v-20c0-2.71,2.9-4.833,6.6-4.833h7.619a1.512,1.512,0,0,1,1.524,1.5,1.511,1.511,0,0,1-1.524,1.5H131.6c-2,0-3.555.986-3.555,1.833v20c0,.847,1.554,1.833,3.555,1.833h7.619a1.511,1.511,0,0,1,1.524,1.5A1.512,1.512,0,0,1,139.222-176.222Z" transform="translate(-125 205.889)" fill="#444"/>
      </g>
    </g>
  </g>
</svg>
