<svg xmlns="http://www.w3.org/2000/svg" xmlns:xlink="http://www.w3.org/1999/xlink" width="208" height="175" viewBox="0 0 208 175">
  <defs>
    <clipPath id="clip-path">
      <rect width="154" height="154" fill="none"/>
    </clipPath>
    <filter id="Rectangle_71" x="27" y="0" width="154" height="154" filterUnits="userSpaceOnUse">
      <feOffset dy="3" input="SourceAlpha"/>
      <feGaussianBlur stdDeviation="6" result="blur"/>
      <feFlood flood-opacity="0.078"/>
      <feComposite operator="in" in2="blur"/>
      <feComposite in="SourceGraphic"/>
    </filter>
  </defs>
  <g id="Remove_Duplicates" data-name="Remove Duplicates" transform="translate(-217 -269)">
    <text id="Remove_Duplicates-2" data-name="Remove Duplicates" transform="translate(321 436)" fill="#444" font-size="24" font-family="Nunito-Regular, Nunito"><tspan x="-103.308" y="0">Remove Duplicates</tspan></text>
    <g id="job-bg" transform="translate(244 269)" clip-path="url(#clip-path)">
      <g transform="matrix(1, 0, 0, 1, -27, 0)" filter="url(#Rectangle_71)">
        <g id="Rectangle_71-2" data-name="Rectangle 71" transform="translate(45 15)" fill="#fff" stroke="#818181" stroke-width="2">
          <rect width="118" height="118" rx="10" stroke="none"/>
          <rect x="1" y="1" width="116" height="116" rx="9" fill="none"/>
        </g>
      </g>
    </g>
    <g id="Group_179" data-name="Group 179" transform="translate(280 299.916)">
      <g id="Group_115" data-name="Group 115" transform="translate(9 11.084)">
        <path id="Path_261" data-name="Path 261" d="M24.3,30.5H13.174A4.179,4.179,0,0,1,9,26.324V15.258a4.179,4.179,0,0,1,4.174-4.174H24.3a4.179,4.179,0,0,1,4.174,4.174V26.324A4.179,4.179,0,0,1,24.3,30.5ZM13.174,13.867a1.393,1.393,0,0,0-1.391,1.391V26.324a1.393,1.393,0,0,0,1.391,1.391H24.3A1.393,1.393,0,0,0,25.7,26.324V15.258A1.393,1.393,0,0,0,24.3,13.867Z" transform="translate(-9 -11.084)" fill="#444"/>
      </g>
      <g id="Group_116" data-name="Group 116" transform="translate(31.261 11.084)">
        <path id="Path_262" data-name="Path 262" d="M40.3,30.5H29.174A4.179,4.179,0,0,1,25,26.324V15.258a4.179,4.179,0,0,1,4.174-4.174H40.3a4.179,4.179,0,0,1,4.174,4.174V26.324A4.179,4.179,0,0,1,40.3,30.5ZM29.174,13.867a1.393,1.393,0,0,0-1.391,1.391V26.324a1.393,1.393,0,0,0,1.391,1.391H40.3A1.393,1.393,0,0,0,41.7,26.324V15.258A1.393,1.393,0,0,0,40.3,13.867Z" transform="translate(-25 -11.084)" fill="#444"/>
      </g>
      <g id="Group_117" data-name="Group 117" transform="translate(53.522 11.084)">
        <path id="Path_263" data-name="Path 263" d="M56.3,30.5H45.174A4.179,4.179,0,0,1,41,26.324V15.258a4.179,4.179,0,0,1,4.174-4.174H56.3a4.179,4.179,0,0,1,4.174,4.174V26.324A4.179,4.179,0,0,1,56.3,30.5ZM45.174,13.867a1.393,1.393,0,0,0-1.391,1.391V26.324a1.393,1.393,0,0,0,1.391,1.391H56.3A1.393,1.393,0,0,0,57.7,26.324V15.258A1.393,1.393,0,0,0,56.3,13.867Z" transform="translate(-41 -11.084)" fill="#444"/>
      </g>
      <g id="Group_118" data-name="Group 118" transform="translate(18.739 49.893)">
        <path id="Path_264" data-name="Path 264" d="M31.3,58.392H20.174A4.179,4.179,0,0,1,16,54.218V43.152a4.178,4.178,0,0,1,4.174-4.174H31.3a4.178,4.178,0,0,1,4.174,4.174V54.218A4.179,4.179,0,0,1,31.3,58.392ZM20.174,41.761a1.393,1.393,0,0,0-1.391,1.391V54.218a1.394,1.394,0,0,0,1.391,1.391H31.3A1.394,1.394,0,0,0,32.7,54.218V43.152A1.393,1.393,0,0,0,31.3,41.761Z" transform="translate(-16 -38.978)" fill="#444"/>
      </g>
      <g id="Group_119" data-name="Group 119" transform="translate(46.565 66.525)">
        <path id="Path_265" data-name="Path 265" d="M43.395,53.715h-6a1.391,1.391,0,0,1,0-2.783h6a1.391,1.391,0,1,1,0,2.783Z" transform="translate(-36 -50.932)" fill="#444"/>
      </g>
      <g id="Group_120" data-name="Group 120" transform="translate(57.696 54.803)">
        <path id="Path_266" data-name="Path 266" d="M45.391,50.855A1.391,1.391,0,0,1,44,49.464V43.9a1.391,1.391,0,0,1,2.783,0v5.565A1.391,1.391,0,0,1,45.391,50.855Z" transform="translate(-44 -42.507)" fill="#444"/>
      </g>
      <g id="Group_121" data-name="Group 121" transform="translate(47.003 49.893)">
        <path id="Path_267" data-name="Path 267" d="M43.053,41.761H37.706a1.391,1.391,0,1,1,0-2.783h5.347a1.391,1.391,0,0,1,0,2.783Z" transform="translate(-36.315 -38.978)" fill="#444"/>
      </g>
      <g id="Group_122" data-name="Group 122" transform="translate(41 55.426)">
        <path id="Path_268" data-name="Path 268" d="M33.391,51.3A1.391,1.391,0,0,1,32,49.912V44.346a1.391,1.391,0,0,1,2.783,0v5.565A1.391,1.391,0,0,1,33.391,51.3Z" transform="translate(-32 -42.955)" fill="#444"/>
      </g>
      <g id="Group_123" data-name="Group 123" transform="translate(35.698 42.871)">
        <path id="Path_269" data-name="Path 269" d="M29.58,66.144a1.391,1.391,0,0,1-1-2.353L56.754,34.359a1.391,1.391,0,0,1,2.01,1.924L30.585,65.714A1.387,1.387,0,0,1,29.58,66.144Z" transform="translate(-28.189 -33.931)" fill="#444"/>
      </g>
      <g id="Group_124" data-name="Group 124" transform="translate(35.698 42.87)">
        <path id="Path_270" data-name="Path 270" d="M57.758,66.144a1.389,1.389,0,0,1-1-.43L28.576,36.284a1.391,1.391,0,1,1,2.009-1.924L58.764,63.791a1.391,1.391,0,0,1-1.006,2.353Z" transform="translate(-28.189 -33.93)" fill="#444"/>
      </g>
    </g>
  </g>
</svg>
