<svg xmlns="http://www.w3.org/2000/svg" xmlns:xlink="http://www.w3.org/1999/xlink" width="154" height="175" viewBox="0 0 154 175">
  <defs>
    <clipPath id="clip-path">
      <rect width="154" height="154" fill="none"/>
    </clipPath>
    <filter id="Rectangle_71" x="0" y="0" width="154" height="154" filterUnits="userSpaceOnUse">
      <feOffset dy="3" input="SourceAlpha"/>
      <feGaussianBlur stdDeviation="6" result="blur"/>
      <feFlood flood-opacity="0.078"/>
      <feComposite operator="in" in2="blur"/>
      <feComposite in="SourceGraphic"/>
    </filter>
  </defs>
  <g id="Replace_Text" data-name="Replace Text" transform="translate(-244 -269)">
    <text id="Replace_Text-2" data-name="Replace Text" transform="translate(321 436)" fill="#444" font-size="24" font-family="Nunito-Regular, Nunito"><tspan x="-68.652" y="0">Replace Text</tspan></text>
    <g id="job-bg-while_drag_and_press" data-name="job-bg-while drag and press" transform="translate(244 269)" clip-path="url(#clip-path)">
      <g transform="matrix(1, 0, 0, 1, 0, 0)" filter="url(#Rectangle_71)">
        <g id="Rectangle_71-2" data-name="Rectangle 71" transform="translate(18 15)" fill="#fff" stroke="#5ea9ff" stroke-width="2">
          <rect width="118" height="118" rx="10" stroke="none"/>
          <rect x="1" y="1" width="116" height="116" rx="9" fill="none"/>
        </g>
      </g>
    </g>
    <g id="Group_239" data-name="Group 239" transform="translate(510 413)">
      <g id="_64_x_64" data-name="64 x 64" transform="translate(-200.438 -56.287)">
        <g id="_3d_arrow_right" data-name="3d arrow right" transform="translate(0 3.855)">
          <g id="Group_231" data-name="Group 231">
            <path id="Path_357" data-name="Path 357" d="M-203.233-55.039a1.524,1.524,0,0,1-1.486-1.19,1.525,1.525,0,0,1,1.154-1.821l4.6-1.032a24,24,0,0,0,12-6.965L-184.125-69a1.525,1.525,0,0,1,2.155-.047,1.525,1.525,0,0,1,.046,2.155l-2.83,2.955a27.028,27.028,0,0,1-13.539,7.831l-4.606,1.033A1.566,1.566,0,0,1-203.233-55.039Z" transform="translate(204.757 69.471)" fill="#444"/>
          </g>
        </g>
        <g id="Group_232" data-name="Group 232" transform="translate(13.328)">
          <path id="Path_358" data-name="Path 358" d="M-185.665-56.185a1.2,1.2,0,0,1-.128-.006,1.522,1.522,0,0,1-1.391-1.646l.852-10.141-8.332-.984A1.524,1.524,0,0,1-196-70.654a1.518,1.518,0,0,1,1.691-1.335l9.8,1.157a1.525,1.525,0,0,1,1.339,1.641l-.975,11.61A1.525,1.525,0,0,1-185.665-56.185Z" transform="translate(196.01 72.001)" fill="#444"/>
        </g>
      </g>
      <g id="Layer_1" data-name="Layer 1" transform="translate(-213 -102)">
        <g id="Group_234" data-name="Group 234">
          <g id="Group_233" data-name="Group 233">
            <path id="Path_359" data-name="Path 359" d="M-196.238-68.476h-9.143A1.523,1.523,0,0,1-206.9-70a1.523,1.523,0,0,1,1.524-1.524h9.143A1.523,1.523,0,0,1-194.714-70,1.523,1.523,0,0,1-196.238-68.476Zm6.347-22.042a1.526,1.526,0,0,1-1.5-1.25l-1.314-7.185h-15.96l-1.314,7.185a1.518,1.518,0,0,1-1.774,1.225,1.525,1.525,0,0,1-1.225-1.774l1.542-8.434a1.524,1.524,0,0,1,1.5-1.25h18.5a1.524,1.524,0,0,1,1.5,1.25l1.542,8.434a1.525,1.525,0,0,1-1.225,1.774A1.545,1.545,0,0,1-189.891-90.518Z" transform="translate(213 102)" fill="#444"/>
          </g>
        </g>
        <g id="Group_235" data-name="Group 235" transform="translate(10.667 1.524)">
          <path id="Path_360" data-name="Path 360" d="M-204.476-69A1.523,1.523,0,0,1-206-70.524V-99.476A1.523,1.523,0,0,1-204.476-101a1.523,1.523,0,0,1,1.524,1.524v28.952A1.523,1.523,0,0,1-204.476-69Z" transform="translate(206 101)" fill="#444"/>
        </g>
        <g id="Group_236" data-name="Group 236" transform="translate(39.62 30.476)">
          <path id="Path_361" data-name="Path 361" d="M-179.381-78.952h-6.1A1.523,1.523,0,0,1-187-80.476,1.523,1.523,0,0,1-185.476-82h6.1a1.523,1.523,0,0,1,1.524,1.524A1.523,1.523,0,0,1-179.381-78.952Z" transform="translate(187 82)" fill="#444"/>
        </g>
        <g id="Group_237" data-name="Group 237" transform="translate(39.62)">
          <path id="Path_362" data-name="Path 362" d="M-179.381-98.952h-6.1A1.523,1.523,0,0,1-187-100.476,1.523,1.523,0,0,1-185.476-102h6.1a1.523,1.523,0,0,1,1.524,1.524A1.523,1.523,0,0,1-179.381-98.952Z" transform="translate(187 102)" fill="#444"/>
        </g>
        <g id="Group_238" data-name="Group 238" transform="translate(42.667 1.524)">
          <path id="Path_363" data-name="Path 363" d="M-183.476-69A1.523,1.523,0,0,1-185-70.524V-99.476A1.523,1.523,0,0,1-183.476-101a1.523,1.523,0,0,1,1.524,1.524v28.952A1.523,1.523,0,0,1-183.476-69Z" transform="translate(185 101)" fill="#444"/>
        </g>
      </g>
    </g>
  </g>
</svg>
