<svg xmlns="http://www.w3.org/2000/svg" width="31.318" height="31.318" viewBox="0 0 31.318 31.318">
  <g id="settings-_icon" data-name="settings- icon" transform="translate(-22.841 -14.841)">
    <path id="Path_9" data-name="Path 9" d="M49.912,37.664c.017-1.131-.156-2.836-.156-2.836s3.854-1.5,1.891-4.721c-1.763-2.889-4.437-.979-4.964-.559-.77-.793-2.113-1.9-2.113-1.9s1.661-3.789-2-4.675c-3.283-.8-3.827,2.433-3.9,3.112-1.131-.017-2.836.156-2.836.156s-1.5-3.854-4.721-1.891c-2.889,1.763-.979,4.437-.559,4.964-.793.77-1.9,2.113-1.9,2.113s-3.789-1.661-4.675,2c-.8,3.283,2.433,3.827,3.112,3.9-.017,1.131.156,2.836.156,2.836s-3.854,1.5-1.891,4.721c1.763,2.889,4.437.979,4.964.559.77.793,2.113,1.9,2.113,1.9s-1.661,3.789,2,4.675c3.283.8,3.827-2.433,3.9-3.112,1.131.017,2.836-.156,2.836-.156s1.5,3.854,4.721,1.891c2.889-1.763.979-4.437.559-4.964.793-.77,1.9-2.113,1.9-2.113s3.789,1.661,4.675-2C53.819,38.285,50.591,37.741,49.912,37.664Zm-7.524.777a4,4,0,1,1-2.947-4.829A4,4,0,0,1,42.388,38.441Z" transform="translate(0 -7)" fill="none" stroke="#444" stroke-linecap="round" stroke-linejoin="round" stroke-width="2"/>
  </g>
</svg>
