<svg xmlns="http://www.w3.org/2000/svg" xmlns:xlink="http://www.w3.org/1999/xlink" width="170" height="175" viewBox="0 0 170 175">
  <defs>
    <clipPath id="clip-path">
      <rect width="154" height="154" fill="none"/>
    </clipPath>
    <filter id="Rectangle_71" x="8" y="0" width="154" height="154" filterUnits="userSpaceOnUse">
      <feOffset dy="3" input="SourceAlpha"/>
      <feGaussianBlur stdDeviation="6" result="blur"/>
      <feFlood flood-opacity="0.078"/>
      <feComposite operator="in" in2="blur"/>
      <feComposite in="SourceGraphic"/>
    </filter>
  </defs>
  <g id="Text_Formatting" data-name="Text Formatting" transform="translate(-26 -269)">
    <text id="Text_Formatting-2" data-name="Text Formatting" transform="translate(111 436)" fill="#444" font-size="24" font-family="Nunito-Regular, Nunito"><tspan x="-84.768" y="0">Text Formatting</tspan></text>
    <g id="job-bg" transform="translate(34 269)" clip-path="url(#clip-path)">
      <g transform="matrix(1, 0, 0, 1, -8, 0)" filter="url(#Rectangle_71)">
        <g id="Rectangle_71-2" data-name="Rectangle 71" transform="translate(26 15)" fill="#fff" stroke="#818181" stroke-width="2">
          <rect width="118" height="118" rx="10" stroke="none"/>
          <rect x="1" y="1" width="116" height="116" rx="9" fill="none"/>
        </g>
      </g>
    </g>
    <g id="Group_230" data-name="Group 230" transform="translate(411 416.643)">
      <g id="Group_225" data-name="Group 225" transform="translate(-332 -97.643)">
        <g id="Group_224" data-name="Group 224">
          <path id="Path_353" data-name="Path 353" d="M-297.656-48.881a1.523,1.523,0,0,1-1.455-1.073l-13.5-43.544a1.478,1.478,0,0,0-1.449-1.1,1.48,1.48,0,0,0-1.452,1.1l-13.5,43.544a1.525,1.525,0,0,1-1.906,1,1.521,1.521,0,0,1-1-1.9l13.5-43.546a4.5,4.5,0,0,1,4.363-3.243,4.5,4.5,0,0,1,4.36,3.243L-296.2-50.855a1.523,1.523,0,0,1-1,1.9A1.511,1.511,0,0,1-297.656-48.881Z" transform="translate(332 97.643)" fill="#444"/>
        </g>
      </g>
      <g id="Group_227" data-name="Group 227" transform="translate(-324.968 -68.651)">
        <g id="Group_226" data-name="Group 226">
          <path id="Path_354" data-name="Path 354" d="M-307.106-75.569h-18.755a1.523,1.523,0,0,1-1.524-1.524,1.523,1.523,0,0,1,1.524-1.524h18.755a1.523,1.523,0,0,1,1.524,1.524A1.523,1.523,0,0,1-307.106-75.569Z" transform="translate(327.385 78.617)" fill="#444"/>
        </g>
      </g>
      <g id="Group_228" data-name="Group 228" transform="translate(-271.048 -80.596)">
        <path id="Path_355" data-name="Path 355" d="M-290.476-59.518A1.524,1.524,0,0,1-292-61.042v-23.89a1.523,1.523,0,0,1,1.524-1.524,1.523,1.523,0,0,1,1.524,1.524v23.89A1.524,1.524,0,0,1-290.476-59.518Z" transform="translate(292 86.456)" fill="#444"/>
      </g>
      <g id="Group_229" data-name="Group 229" transform="translate(-292.146 -78.207)">
        <path id="Path_356" data-name="Path 356" d="M-293.773-60.34a12.189,12.189,0,0,1-12.073-12.274,12.189,12.189,0,0,1,12.073-12.274A12.189,12.189,0,0,1-281.7-72.614,12.189,12.189,0,0,1-293.773-60.34Zm0-21.5a9.138,9.138,0,0,0-9.025,9.227,9.138,9.138,0,0,0,9.025,9.227,9.138,9.138,0,0,0,9.025-9.227A9.138,9.138,0,0,0-293.773-81.84Z" transform="translate(305.846 84.888)" fill="#444"/>
      </g>
    </g>
  </g>
</svg>
