<svg xmlns="http://www.w3.org/2000/svg" width="23.109" height="28.442" viewBox="0 0 23.109 28.442">
  <path id="user_icon_formal" d="M95.665,52.445a8.784,8.784,0,0,0-4.906-3.276l-2.021,7.075a1.185,1.185,0,1,1-2.37,0V50.614a1.481,1.481,0,1,0-2.963,0v5.629a1.185,1.185,0,1,1-2.37,0l-2.021-7.075a8.812,8.812,0,0,0-4.906,3.276,5.375,5.375,0,0,0-.777,2.613c.006.178,0,.385,0,.592v2.37a2.369,2.369,0,0,0,2.37,2.37H94.071a2.37,2.37,0,0,0,2.37-2.37V55.65c0-.207-.006-.415,0-.592A5.382,5.382,0,0,0,95.665,52.445Zm-17-14.227c0,3.46,2.157,8.544,6.222,8.544,3.994,0,6.222-5.084,6.222-8.544a6.222,6.222,0,1,0-12.443,0Z" transform="translate(-73.332 -31.949)" fill="#00accc" fill-rule="evenodd"/>
</svg>
